<svg width="117" height="91" viewBox="0 0 117 91" fill="none" xmlns="http://www.w3.org/2000/svg">
<path d="M117 80.2237V83.8158C117 87.7836 111.581 91.0001 104.897 91.0001H12.1034C5.4189 91.0001 0 87.7836 0 83.8158V80.2237C0 79.5624 0.90315 79.0264 2.01724 79.0264H114.983C116.097 79.0264 117 79.5624 117 80.2237Z" fill="#2B69DD"/>
<path d="M38.1875 78.8125H78.8125V81.0875C78.8125 82.9722 76.0842 84.5 72.7188 84.5H44.2812C40.9158 84.5 38.1875 82.9722 38.1875 81.0875V78.8125Z" fill="#75ACFE"/>
<path d="M9.75 85.3125C8.85254 85.3125 8.125 84.585 8.125 83.6875C8.125 82.79 8.85254 82.0625 9.75 82.0625C10.6475 82.0625 11.375 82.79 11.375 83.6875C11.375 84.585 10.6475 85.3125 9.75 85.3125Z" fill="#FBAC00"/>
<path d="M16.25 85.3125C15.3525 85.3125 14.625 84.585 14.625 83.6875C14.625 82.79 15.3525 82.0625 16.25 82.0625C17.1475 82.0625 17.875 82.79 17.875 83.6875C17.875 84.585 17.1475 85.3125 16.25 85.3125Z" fill="#E64C3C"/>
<path d="M28.1125 85.3125H22.2625C21.1855 85.3125 20.3125 84.585 20.3125 83.6875C20.3125 82.79 21.1855 82.0625 22.2625 82.0625H28.1125C29.1895 82.0625 30.0625 82.79 30.0625 83.6875C30.0625 84.585 29.1895 85.3125 28.1125 85.3125Z" fill="#75ACFE"/>
<path d="M112.993 7.35128V79.0263H4.00671V7.35128C4.00671 3.29128 7.62115 0 12.0798 0H104.92C109.379 0 112.993 3.29128 112.993 7.35128Z" fill="#2B69DD"/>
<path d="M103.377 7.98242C91.1507 8.38452 13.4913 13.069 12.0363 72.6403C12.0151 72.5341 12.0151 72.4248 12.0363 72.3186V9.99293C12.0363 8.88256 12.9411 7.98242 14.0571 7.98242H102.972H103.377Z" fill="#75ACFE"/>
<path d="M104.979 9.99013V72.2291C104.979 73.3379 104.074 74.2368 102.958 74.2368H14.0412C13.55 74.2361 13.0759 74.0577 12.7075 73.7349C12.3617 73.4526 12.12 73.0642 12.0204 72.6306C13.4754 13.0619 91.1362 8.38396 103.362 7.98242C103.704 8.06192 104.023 8.22009 104.292 8.44419C104.739 8.83398 104.99 9.39949 104.979 9.99013Z" fill="#75ACFE"/>
<rect opacity="0.4" x="34.5734" y="45.1577" width="48.0822" height="1.82456" rx="0.912281" fill="#2B69DD"/>
<path fill-rule="evenodd" clip-rule="evenodd" d="M75.8647 37.1389C78.2243 46.5658 72.4653 56.1131 63.0015 58.4635C53.5376 60.8139 43.953 55.0773 41.5934 45.6504C39.2338 36.2234 44.9928 26.6762 54.4567 24.3258C63.9205 21.9754 73.5051 27.712 75.8647 37.1389Z" fill="#FFC246"/>
<path fill-rule="evenodd" clip-rule="evenodd" d="M65.8161 37.1588C65.5703 34.6734 63.4316 33.8281 60.7247 33.5828L60.7189 30.1431L58.5843 30.1342L58.5846 33.5064L56.9226 33.5177L56.9089 30.1373L54.8199 30.1285L54.8256 33.5682L50.6102 33.5828L50.6569 35.8194C50.6569 35.8194 52.2007 35.7915 52.1739 35.8211C52.7495 35.7666 53.2719 36.1665 53.373 36.7392L53.4585 46.1924C53.4476 46.3899 53.359 46.5746 53.2121 46.7057C53.0653 46.8368 52.8723 46.9037 52.6757 46.8915L51.0486 46.9056L50.6393 49.416L53.3673 49.4267L54.8655 49.4446L54.8605 52.8869L56.9468 52.885L56.9411 49.4453L58.6435 49.5043L58.6492 52.9439L60.7489 52.9501L60.7404 49.4538C64.2628 49.2672 66.7208 48.3814 67.0187 45.0613C67.2613 42.3859 66.0456 41.1737 64.0123 40.7037C65.3461 40.0736 66.0866 38.6184 65.8161 37.1588ZM62.9072 44.6256C62.9116 47.2398 58.4431 46.8813 57.0416 46.9312L57.0339 42.345C58.4059 42.3139 62.8516 41.898 62.8643 44.6363L62.9072 44.6256ZM61.9109 38.0941C61.9229 40.4654 58.1983 40.1632 57.0277 40.1786L56.9723 35.9942C58.1591 35.9977 61.8639 35.6282 61.868 38.1047L61.9109 38.0941Z" fill="white"/>
<rect x="33.8865" y="46.5264" width="49.456" height="1.82456" rx="0.912281" fill="#2B69DD"/>
<rect x="39.1528" y="48.3506" width="36.4051" height="16.4211" fill="#75ACFE"/>
<rect x="52.2036" y="15.7368" width="1.8317" height="7.07018" rx="0.915851" fill="#2B69DD"/>
<rect x="57.6986" y="10.2632" width="1.8317" height="10.9474" rx="0.915851" fill="#2B69DD"/>
<rect x="63.1936" y="12.0879" width="1.8317" height="3.64912" rx="0.915851" fill="#2B69DD"/>
<g clip-path="url(#clip0_71_142)">
<g filter="url(#filter0_d_71_142)">
<path fill-rule="evenodd" clip-rule="evenodd" d="M58.6144 68.6493C62.7873 68.6493 66.1701 65.2797 66.1701 61.123C66.1701 56.9663 62.7873 53.5967 58.6144 53.5967C54.4414 53.5967 51.0586 56.9663 51.0586 61.123C51.0586 65.2797 54.4414 68.6493 58.6144 68.6493Z" fill="#098B50"/>
<path d="M61.1638 58.7988C61.3764 58.5643 61.7334 58.5516 61.9612 58.7705C62.189 58.9894 62.2013 59.3571 61.9887 59.5916L58.0396 63.949C57.8333 64.1766 57.4895 64.1963 57.26 63.9937L55.2854 62.2507C55.0488 62.0419 55.0214 61.6752 55.2242 61.4315C55.427 61.1879 55.7831 61.1597 56.0197 61.3685L57.5837 62.749L61.1638 58.7988Z" fill="white"/>
</g>
</g>
<defs>
<filter id="filter0_d_71_142" x="47.0586" y="50.5967" width="23.1116" height="23.0527" filterUnits="userSpaceOnUse" color-interpolation-filters="sRGB">
<feFlood flood-opacity="0" result="BackgroundImageFix"/>
<feColorMatrix in="SourceAlpha" type="matrix" values="0 0 0 0 0 0 0 0 0 0 0 0 0 0 0 0 0 0 127 0" result="hardAlpha"/>
<feOffset dy="1"/>
<feGaussianBlur stdDeviation="2"/>
<feColorMatrix type="matrix" values="0 0 0 0 0.2 0 0 0 0 0.2 0 0 0 0 0.2 0 0 0 0.25 0"/>
<feBlend mode="normal" in2="BackgroundImageFix" result="effect1_dropShadow_71_142"/>
<feBlend mode="normal" in="SourceGraphic" in2="effect1_dropShadow_71_142" result="shape"/>
</filter>
<clipPath id="clip0_71_142">
<rect width="20.1487" height="20.0702" fill="white" transform="translate(48.54 51.0879)"/>
</clipPath>
</defs>
</svg>
